<svg xmlns="http://www.w3.org/2000/svg" xmlns:svg="http://www.w3.org/2000/svg" id="svg2" width="575.209" height="240.569" version="1.1" viewBox="0 0 575.209 240.569"><title id="title4160">D4J Logo</title><metadata id="metadata7"/><g id="layer2" style="display:inline" transform="translate(-214.53474,-140.00001)"><path style="fill:#2c62ba;fill-opacity:1;fill-rule:evenodd;stroke:none;stroke-width:1px;stroke-linecap:butt;stroke-linejoin:miter;stroke-opacity:1" id="path4158" d="m 214.53474,140.00001 0,95.89104 60.59177,59.03892 -0.59177,-59.01572 0,-36.92973 54.54451,-0.54561 23.3816,26.25109 -0.0483,63.51119 -25.56302,28.03059 -46.90455,0.41765 -5.41023,0.10826 -59.95062,0 0,63.24231 66.97581,-0.32286 68.61873,0.89226 55.26961,-61.16504 -0.11491,-28.61719 0.33583,-94.7836 -52.23347,-55.29506 -78.96638,-0.44465 -59.9346,-0.26385 0,0"/></g><g id="layer3" transform="translate(-214.53474,-140.00001)"><path style="fill:#dd1d26;fill-opacity:1;fill-rule:evenodd;stroke:none;stroke-width:1px;stroke-linecap:butt;stroke-linejoin:miter;stroke-opacity:1" id="path4163" d="m 405.67,260 0,60 141.07156,0 0,60 53.44954,0 0,-60 -0.20357,0 -1.54184,-121.75549 -50.72038,50.53193 0.72991,11.22356 -77.15715,0 46.55997,-69.3344 30.56276,0 50.73141,-50.66559 -112.44294,0 z"/></g><g id="layer4" transform="translate(-214.53474,-140.00001)"><g id="g4189"><path id="path4166" d="M 599.97209,260 630.04018,290.06809 599.97209,320 l 0,-60" style="fill:#dd5f1d;fill-opacity:1;fill-rule:evenodd;stroke:none;stroke-width:1px;stroke-linecap:butt;stroke-linejoin:miter;stroke-opacity:1"/><path id="path4184" d="m 629.97209,290 30,30 -60,0 z" style="fill:#dd911d;fill-opacity:1;fill-rule:evenodd;stroke:none;stroke-width:1px;stroke-linecap:butt;stroke-linejoin:miter;stroke-opacity:1"/></g></g><g id="layer5" transform="translate(-214.53474,-140.00001)"><path style="fill:#ebcb1c;fill-opacity:1;fill-rule:evenodd;stroke:none;stroke-width:1px;stroke-linecap:butt;stroke-linejoin:miter;stroke-opacity:1" id="path4193" d="m 600,319.79736 0.11121,60.47913 63.32084,-0.27649 68.77985,0 31.98545,-32.42478 25.5468,-27.33417 0,-180.24104 -100,0 40,40 0,139.79735 z"/></g></svg>