<svg xmlns="http://www.w3.org/2000/svg" xmlns:svg="http://www.w3.org/2000/svg" xmlns:xlink="http://www.w3.org/1999/xlink" id="svg2" width="1272.479" height="1262.497" version="1.1" viewBox="0 0 1272.479 1262.497"><title id="title4160">D4J pain</title><defs id="defs4"><linearGradient id="linearGradient6112"><stop style="stop-color:#fff;stop-opacity:1" id="stop6114" offset="0"/><stop style="stop-color:#ededed;stop-opacity:.0627451" id="stop6116" offset="1"/></linearGradient><linearGradient id="linearGradient6118" x1="-59.099" x2="-42.306" y1="-59.742" y2="-160.504" gradientUnits="userSpaceOnUse" xlink:href="#linearGradient6112"/></defs><metadata id="metadata7"/><g id="layer12" transform="translate(566.11475,558.49432)"><rect style="opacity:.99640288;fill:#1a4343;fill-opacity:1;stroke:none;stroke-width:2;stroke-linecap:round;stroke-linejoin:miter;stroke-miterlimit:4;stroke-dasharray:none;stroke-opacity:1" id="rect6070" width="1269.651" height="1279.467" x="-563.286" y="-575.465"/></g><g id="layer15" transform="translate(566.11475,558.49432)"><path style="fill:#000;fill-opacity:.35714285;fill-rule:evenodd;stroke:none;stroke-width:1px;stroke-linecap:butt;stroke-linejoin:miter;stroke-opacity:1" id="path6125" d="m 368.04235,44.635254 337.85628,370.866496 0.13051,288.4583 -22.4798,0.0824 -351.16553,-2.84883 -441.89536,-459.07856 76.163278,-281.377967 -14.8593,-19.226743 57.4205895,0.363609 36.9115145,-65.178309 20.582347,21.20191 -23.22418,43.622987 66.295501,-0.116475 48.16283,-89.799752 143.73915,160.129908 z"/></g><g id="layer11" transform="translate(566.11475,558.49432)"><g id="g6059" transform="matrix(1,0,0,0.91271165,82.953318,20.81235)"><g id="g6064" transform="matrix(0.80639591,0,0,1,25.422692,0)"><path transform="translate(-218.65571,-139.82223)" style="display:inline;fill:#dd1d26;fill-opacity:1;fill-rule:evenodd;stroke:none;stroke-width:1px;stroke-linecap:butt;stroke-linejoin:miter;stroke-opacity:1" id="path4158" d="m 464.4902,175.44976 21.16262,15.27454 -0.0483,122.54059 -23.39248,13.30556 23.37758,53.29184 55.26961,-31.76954 -0.11491,-58.01269 0.33583,-126.4753 -52.23347,-36.20318"/><path style="display:inline;fill:#2c62ba;fill-opacity:1;fill-rule:evenodd;stroke:none;stroke-width:1px;stroke-linecap:butt;stroke-linejoin:miter;stroke-opacity:1" id="path4158-6" d="m 131.31708,-13.06147 0,111.249329 57.58503,59.038931 1.16198,-121.624608 55.7975,0.1615 24.35648,-48.116652 -78.96638,-0.44465 -59.9346,-0.26385 0,0"/><path style="display:inline;fill:#ebcb1c;fill-opacity:1;fill-rule:evenodd;stroke:none;stroke-width:1px;stroke-linecap:butt;stroke-linejoin:miter;stroke-opacity:1" id="path4158-6-8" d="m 243.57818,185.94843 -46.90455,0.41765 -5.41023,0.10826 -59.95062,0 0.0625,53.51215 c 0,0 90.34955,-0.58061 135.53204,0.007"/></g></g></g><g id="layer13" style="display:inline" transform="translate(566.11475,558.49432)"><path style="display:inline;fill:#efefef;fill-opacity:1;fill-rule:evenodd;stroke:none;stroke-width:1px;stroke-linecap:butt;stroke-linejoin:miter;stroke-opacity:1" id="path5443" d="m 201.5081,241.90152 -64.49221,64.4922 -182.727922,0 -64.492198,-64.4922 0,-278.377853 311.71233,0 z"/></g><g id="g6088" transform="translate(566.11475,558.49432)"><path id="path6090" d="m 201.5081,187.13197 -13.74246,25.43184 -40.69777,27.99194 -199.786352,3.41074 -39.27228,-27.98821 -18.213468,-29.98152 0.11018,-134.851496 311.60215,-2.566294 z" style="display:inline;fill:#efefef;fill-opacity:1;fill-rule:evenodd;stroke:none;stroke-width:1px;stroke-linecap:butt;stroke-linejoin:miter;stroke-opacity:1"/></g><g id="g6096" style="display:inline" transform="translate(566.11475,558.49432)"><path id="path6098" d="m 201.5081,61.658881 -19.33915,76.755279 -37.71563,26.53761 -207.000002,-0.40559 -30.753998,-23.82372 -16.90355,-81.455499 0,-96.329078 311.71233,0 z" style="display:inline;fill:#efefef;fill-opacity:1;fill-rule:evenodd;stroke:none;stroke-width:1px;stroke-linecap:butt;stroke-linejoin:miter;stroke-opacity:1"/></g><g id="g6103" transform="translate(566.11475,558.49432)"><g id="g6108" transform="matrix(1.1909243,0,0,1.1909243,94.680518,11.326052)" style="fill:url(#linearGradient6118);fill-opacity:1"><path id="path6101" d="m -43.268624,-59.822229 40.4860868,-75.656851 55.5710682,0 -40.486088,75.656851 z" style="fill:#c3c3c3;fill-opacity:.5625;fill-rule:evenodd;stroke:none;stroke-width:1px;stroke-linecap:butt;stroke-linejoin:miter;stroke-opacity:1"/><path style="fill:#c3c3c3;fill-opacity:.5625;fill-rule:evenodd;stroke:none;stroke-width:1px;stroke-linecap:butt;stroke-linejoin:miter;stroke-opacity:1" id="path6105" d="m -120.34326,-59.822229 30.807609,-54.443651 48.5,0 -30.807612,54.443651 z"/></g></g></svg>